<svg id="icons" enable-background="new 0 0 64 64" height="512" viewBox="0 0 64 64" width="512" xmlns="http://www.w3.org/2000/svg"><g><g><path d="m56.97 11.803c.99.48 1.4 1.69.92 2.681l-2.5 5.06c-.479.99-1.689 1.41-2.67.92l-1.8-.88-1.8-.87c-.99-.479-1.4-1.69-.92-2.68l2.5-5.061c.479-.989 1.689-1.41 2.67-.92z" fill="#e6e9ed"/></g><g><path d="m60 27.163 3 11h-3-2l-3-11z" fill="#656d78"/></g><g><path d="m52 23.163v4h-8v-2-2h5.17z" fill="#e6e9ed"/></g><g><path d="m33.01 33.153 3.99 4h-36l4-4z" fill="#f6bb42"/></g><g><path d="m39.99 25.163-3.99 2v-4z" fill="#ffce54"/></g><g><path d="m60 27.163h-5-3v-4h8v1z" fill="#e6e9ed"/></g><g><path d="m2.01 50.153h7.99v4h-7.99z" fill="#656d78"/></g><g><path d="m1 37.153v4 9h1.01 7.99 18 8 1v-9-4zm7.5 7h-1.5c-1.66 0-3-1.341-3-3h4.5c.83 0 1.5.67 1.5 1.5s-.67 1.5-1.5 1.5zm16.5 2h-3-3-3-3v-3.5-.5h3 3 3 3v.5zm6-2h-1.5c-.83 0-1.5-.67-1.5-1.5s.67-1.5 1.5-1.5h4.5c0 1.66-1.34 3-3 3z" fill="#ffce54"/></g><g><path d="m28 50.153h8v4h-8z" fill="#656d78"/></g><g><g><path d="m25 42.653v3.5h-3v-4h3z" fill="#fff"/></g><g><path d="m29.5 41.153h4.5c0 1.659-1.34 3-3 3h-1.5c-.83 0-1.5-.67-1.5-1.5s.67-1.5 1.5-1.5z" fill="#fff"/></g><g><path d="m4 41.153h4.5c.83 0 1.5.67 1.5 1.5s-.67 1.5-1.5 1.5h-1.5c-1.66 0-3-1.34-3-3z" fill="#fff"/></g><g><path d="m19 42.153h3v4h-3z" fill="#fff"/></g><g><path d="m16 42.153v4h-3v-3.5-.5z" fill="#fff"/></g><g><path d="m16 42.153h3v4h-3z" fill="#fff"/></g></g><g><path d="m33.01 26.153v7h-28.01v-7c0-1.66 1.34-3 3-3h22.01c1.66 0 3 1.34 3 3z" fill="#5d9cec"/></g></g><g><g><path d="m59.994 28.158h-16.002c-.553 0-1-.447-1-1v-4c0-.553.447-1 1-1h16.002c.553 0 1 .447 1 1v4c0 .553-.447 1-1 1zm-15.002-2h14.002v-2h-14.002z"/></g><g><g><g><path d="m37 51.146h-36c-.553 0-1-.447-1-1v-13c0-.553.447-1 1-1h36c.553 0 1 .447 1 1v13.001c0 .552-.447.999-1 .999zm-35-2h34v-11h-34z"/></g><g><path d="m36 55.15h-8c-.553 0-1-.447-1-1v-4.004c0-.553.447-1 1-1h8c.553 0 1 .447 1 1v4.004c0 .553-.447 1-1 1zm-7-2h6v-2.004h-6z"/></g><g><path d="m10.002 55.15h-7.998c-.553 0-1-.447-1-1v-4.004c0-.553.447-1 1-1h7.998c.553 0 1 .447 1 1v4.004c0 .553-.447 1-1 1zm-6.998-2h5.998v-2.004h-5.998z"/></g><g><path d="m1 38.146c-.256 0-.512-.098-.707-.293-.391-.391-.391-1.023 0-1.414l3.998-3.996c.391-.391 1.023-.391 1.414 0s.391 1.023 0 1.414l-3.998 3.996c-.195.195-.451.293-.707.293z"/></g><g><path d="m37 38.145c-.256 0-.512-.098-.707-.293l-3.996-3.996c-.391-.391-.391-1.023 0-1.414s1.023-.391 1.414 0l3.996 3.996c.391.391.391 1.023 0 1.414-.195.195-.451.293-.707.293z"/></g><g><path d="m33.004 27.148c-.553 0-1-.447-1-1 0-1.103-.897-2-2-2-.553 0-1-.447-1-1s.447-1 1-1c2.206 0 4 1.794 4 4 0 .553-.447 1-1 1z"/></g><g><path d="m4.998 27.147c-.553 0-1-.447-1-1 0-2.206 1.794-4 4-4 .553 0 1 .447 1 1s-.447 1-1 1c-1.103 0-2 .897-2 2 0 .553-.447 1-1 1z"/></g><g><path d="m33.004 34.148c-.553 0-1-.447-1-1v-7c0-.553.447-1 1-1s1 .447 1 1v7c0 .553-.447 1-1 1z"/></g><g><path d="m30.004 24.148h-22.006c-.553 0-1-.447-1-1s.447-1 1-1h22.006c.553 0 1 .447 1 1s-.447 1-1 1z"/></g><g><path d="m4.998 34.149c-.553 0-1-.447-1-1v-7.002c0-.553.447-1 1-1s1 .447 1 1v7.002c0 .553-.447 1-1 1z"/></g><g><path d="m33.004 34.148h-28.006c-.553 0-1-.447-1-1s.447-1 1-1h28.006c.553 0 1 .447 1 1s-.447 1-1 1z"/></g><g><g><path d="m7 45.148c-2.206 0-4-1.794-4-4 0-.553.447-1 1-1s1 .447 1 1c0 1.103.897 2 2 2 .553 0 1 .447 1 1s-.447 1-1 1z"/></g><g><path d="m8.5 45.148c-.553 0-1-.447-1-1s.447-1 1-1c.275 0 .5-.225.5-.5s-.225-.5-.5-.5c-.553 0-1-.447-1-1s.447-1 1-1c1.379 0 2.5 1.121 2.5 2.5s-1.121 2.5-2.5 2.5z"/></g><g><path d="m8.5 45.148h-1.5c-.553 0-1-.447-1-1s.447-1 1-1h1.5c.553 0 1 .447 1 1s-.447 1-1 1z"/></g><g><path d="m8.5 42.148h-4.5c-.553 0-1-.447-1-1s.447-1 1-1h4.5c.553 0 1 .447 1 1s-.447 1-1 1z"/></g></g><g><g><path d="m31 45.148c-.553 0-1-.447-1-1s.447-1 1-1c1.103 0 2-.897 2-2 0-.553.447-1 1-1s1 .447 1 1c0 2.206-1.794 4-4 4z"/></g><g><path d="m29.5 45.148c-1.379 0-2.5-1.121-2.5-2.5s1.121-2.5 2.5-2.5c.553 0 1 .447 1 1s-.447 1-1 1c-.275 0-.5.225-.5.5s.225.5.5.5c.553 0 1 .447 1 1s-.447 1-1 1z"/></g><g><path d="m31 45.148h-1.5c-.553 0-1-.447-1-1s.447-1 1-1h1.5c.553 0 1 .447 1 1s-.447 1-1 1z"/></g><g><path d="m34 42.148h-4.5c-.553 0-1-.447-1-1s.447-1 1-1h4.5c.553 0 1 .447 1 1s-.447 1-1 1z"/></g></g><g><path d="m25 47.148h-12c-.553 0-1-.447-1-1v-3.999c0-.553.447-1 1-1h12c.553 0 1 .447 1 1v3.999c0 .553-.447 1-1 1zm-11-2h10v-1.999h-10z"/></g><g><path d="m22 47.148c-.553 0-1-.447-1-1v-3.999c0-.553.447-1 1-1s1 .447 1 1v3.999c0 .553-.447 1-1 1z"/></g><g><path d="m19 47.148c-.553 0-1-.447-1-1v-3.999c0-.553.447-1 1-1s1 .447 1 1v3.999c0 .553-.447 1-1 1z"/></g><g><path d="m16 47.148c-.553 0-1-.447-1-1v-3.999c0-.553.447-1 1-1s1 .447 1 1v3.999c0 .553-.447 1-1 1z"/></g></g></g><g><path d="m62.997 39.157c-.439 0-.842-.292-.964-.736l-3.004-10.999c-.146-.533.169-1.083.701-1.229.529-.141 1.082.168 1.229.701l3.004 10.999c.146.533-.169 1.083-.701 1.229-.088.024-.177.035-.265.035z"/></g><g><path d="m57.999 39.157c-.439 0-.842-.292-.964-.736l-3.006-10.999c-.146-.533.169-1.083.701-1.229.528-.141 1.082.168 1.229.701l3.006 10.999c.146.533-.169 1.083-.701 1.229-.088.024-.177.035-.265.035z"/></g><g><path d="m62.998 39.157h-4.998c-.553 0-1-.447-1-1s.447-1 1-1h4.998c.553 0 1 .447 1 1s-.447 1-1 1z"/></g><g><path d="m61.998 25.157h-2.004c-.553 0-1-.447-1-1s.447-1 1-1h2.004c.553 0 1 .447 1 1s-.447 1-1 1z"/></g><g><path d="m61.998 28.158h-2.004c-.553 0-1-.447-1-1s.447-1 1-1h2.004c.553 0 1 .447 1 1s-.447 1-1 1z"/></g><g><path d="m52 34.151c-.553 0-1-.447-1-1v-9.993c0-.553.447-1 1-1s1 .447 1 1v9.993c0 .553-.447 1-1 1z"/></g><g><path d="m50.002 36.149c-.553 0-1-.447-1-1s.447-1 1-1c.551 0 .998-.447.998-.998 0-.553.447-1 1-1s1 .447 1 1c0 1.654-1.345 2.998-2.998 2.998z"/></g><g><path d="m43.992 26.158h-1.994c-.553 0-1-.447-1-1s.447-1 1-1h1.994c.553 0 1 .447 1 1s-.447 1-1 1z"/></g><g><path d="m53.585 21.663c-.458 0-.898-.103-1.311-.304l-3.594-1.754c-1.486-.726-2.105-2.525-1.38-4.012l2.5-5.072c.497-1.019 1.558-1.679 2.7-1.679.458 0 .898.102 1.31.303l3.595 1.756c.718.35 1.258.96 1.519 1.72.262.76.212 1.573-.139 2.291l-2.5 5.072c-.497 1.018-1.557 1.679-2.7 1.679zm-1.084-10.82c-.384 0-.739.22-.905.56l-2.5 5.072c-.24.492-.033 1.092.462 1.334l3.594 1.754c.482.233 1.106.015 1.339-.459l2.5-5.072c.114-.234.13-.505.042-.76-.087-.253-.266-.457-.503-.572l-3.597-1.757c-.137-.067-.282-.1-.432-.1z"/></g><g><path d="m49.167 24.157c-.146 0-.296-.032-.438-.102-.496-.242-.702-.841-.46-1.337l1.744-3.575c.242-.496.838-.703 1.337-.46.496.242.702.841.46 1.337l-1.744 3.575c-.172.356-.529.562-.899.562z"/></g><g><path d="m59.994 41.155c-.553 0-1-.447-1-1v-1.997c0-.553.447-1 1-1s1 .447 1 1v1.997c0 .553-.447 1-1 1z"/></g><g><path d="m40.009 26.163c-.15 0-.303-.034-.446-.105l-4.01-2.004c-.494-.247-.694-.848-.447-1.342.246-.495.848-.693 1.342-.447l4.01 2.004c.494.247.694.848.447 1.342-.176.35-.529.552-.896.552z"/></g><g><path d="m36.001 28.159c-.366 0-.72-.202-.895-.552-.248-.493-.049-1.095.445-1.342l4.002-2.008c.494-.248 1.096-.047 1.342.445.248.493.049 1.095-.445 1.342l-4.002 2.008c-.143.073-.297.107-.447.107z"/></g><g><path d="m57.994 43.155c-.553 0-1-.447-1-1s.447-1 1-1c.552 0 1-.448 1-1 0-.553.447-1 1-1s1 .447 1 1c0 1.655-1.346 3-3 3z"/></g><g><path d="m57.994 43.155h-14.998c-.553 0-1-.447-1-1s.447-1 1-1h14.998c.553 0 1 .447 1 1s-.447 1-1 1z"/></g><g><path d="m42.994 47.155c-1.654 0-3-1.346-3-3s1.346-3 3-3c.553 0 1 .447 1 1s-.447 1-1 1c-.552 0-1 .448-1 1s.448 1 1 1c.553 0 1 .447 1 1s-.447 1-1 1z"/></g><g><path d="m61 51.155c-.553 0-1-.447-1-1s.447-1 1-1c.552 0 1-.448 1-1s-.448-1-1-1c-.553 0-1-.447-1-1s.447-1 1-1c1.654 0 3 1.346 3 3s-1.346 3-3 3z"/></g><g><path d="m42.996 55.157c-1.654 0-3-1.346-3-3s1.346-3 3-3c.553 0 1 .447 1 1s-.447 1-1 1c-.552 0-1 .448-1 1s.448 1 1 1c.553 0 1 .447 1 1s-.447 1-1 1z"/></g><g><path d="m61 47.155h-18.006c-.553 0-1-.447-1-1s.447-1 1-1h18.006c.553 0 1 .447 1 1s-.447 1-1 1z"/></g><g><path d="m61 51.155h-18.006c-.553 0-1-.447-1-1s.447-1 1-1h18.006c.553 0 1 .447 1 1s-.447 1-1 1z"/></g><g><path d="m62.998 55.157h-20.002c-.553 0-1-.447-1-1s.447-1 1-1h20.002c.553 0 1 .447 1 1s-.447 1-1 1z"/></g></g></svg>