<svg id="Capa_1" enable-background="new 0 0 512.027 512.027" height="512" viewBox="0 0 512.027 512.027" width="512" xmlns="http://www.w3.org/2000/svg"><g><g><path d="m311.054 45.667c-29.05-28.38-71.52-38.26-110.12-25.4l20.31 20.31c18.48 18.49 8.84 50.11-16.8 55.14-14.16 2.78-28.47-4.06-35.19-16.83l-8.99-17.09c-24.55-46.64-81.89-65.1-129.04-41.53 26.69 8.9 145.27 123.98-21.21 106.07 12.56 37.67 38.88 53.25 62.17 59.59 20.81 5.66 31.85 28.13 22.21 47.43-10.2 20.4-37.4 24.81-53.53 8.68l-9.64-9.63c0 46.48 21.89 73.71 51.62 91.99 29.82 18.32 64.7 26.73 99.35 25.21l76.875-114.985 101.725-51.506c3.98-49.109-12.61-99.589-49.74-137.449z" fill="#ffda8f"/><path d="m462.014 342.027c0-66.306-53.974-120-120-120-66.068 0-120 53.743-120 120 0 66.306 53.974 120 120 120 66.068 0 120-53.743 120-120zm40 0c0 88.37-71.63 160-160 160-88.572 0-160-71.84-160-160 0-88.37 71.63-160 160-160 88.556 0 160 71.813 160 160z" fill="#8690a6"/><circle cx="342.014" cy="342.027" fill="#eefaff" r="20"/></g><g><path d="m342.014 212.027c-71.295 0-130 58.01-130 130 0 72.602 59.403 130 130 130 70.606 0 130-57.406 130-130 0-71.916-58.635-130-130-130zm29.484 135.476c.335-1.8.516-3.632.516-5.476s-.181-3.676-.516-5.476l70.362-40.626c6.659 14.394 10.154 30.146 10.154 46.102 0 15.957-3.495 31.709-10.154 46.102zm-129.331 40.626c-6.659-14.394-10.154-30.146-10.154-46.102 0-15.957 3.495-31.709 10.154-46.102l70.362 40.626c-.335 1.8-.516 3.632-.516 5.476 0 1.845.181 3.677.515 5.477zm99.847-36.102c-5.495 0-10-4.498-10-10 0-5.446 4.444-10 10-10 5.521 0 10 4.521 10 10 0 5.446-4.445 10-10 10zm89.818-73.407-70.345 40.617c-2.797-2.386-6.01-4.242-9.473-5.473v-81.264c31.918 2.949 61.219 19.88 79.818 46.12zm-99.818-46.12v81.263c-3.466 1.231-6.681 3.087-9.477 5.472l-70.342-40.615c18.6-26.241 47.9-43.171 79.819-46.12zm-79.819 172.934 70.346-40.617c2.796 2.385 6.01 4.242 9.473 5.473v81.264c-31.919-2.949-61.22-19.88-79.819-46.12zm99.819 46.12v-81.263c3.466-1.231 6.681-3.087 9.477-5.472l70.342 40.615c-18.6 26.241-47.901 43.171-79.819 46.12z"/><circle cx="454.014" cy="456.027" r="10"/><path d="m371.276 174.545c1.545-50.536-17.512-99.611-53.082-135.881-.05-.051-.101-.102-.151-.151-31.925-31.185-78.008-41.813-120.271-27.733-3.288 1.096-5.774 3.816-6.571 7.189-.796 3.373.21 6.918 2.662 9.369l20.308 20.308c6.023 6.026 8.136 14.489 5.651 22.637-2.483 8.143-8.952 13.983-17.304 15.622-9.751 1.915-19.79-2.887-24.414-11.673l-8.991-17.094c-13.1-24.886-35.058-43.337-61.83-51.954-26.775-8.617-55.374-6.438-80.53 6.139-3.618 1.809-5.79 5.618-5.504 9.652.287 4.034 2.975 7.499 6.812 8.778 5.767 1.923 22.346 13.904 37.237 30.537 15.514 17.329 23.546 33.314 21.488 42.764-2.864 13.144-31.167 18.127-75.702 13.34-3.393-.374-6.723 1.018-8.857 3.67-2.136 2.65-2.776 6.206-1.699 9.436 11.342 34.02 35.212 56.87 69.032 66.077 7.376 2.006 13.334 7.014 16.345 13.739 2.841 6.344 2.678 13.295-.456 19.569-3.406 6.812-9.672 11.418-17.193 12.639-7.526 1.222-14.932-1.169-20.325-6.563l-9.64-9.63c-2.861-2.857-7.161-3.712-10.896-2.162-3.736 1.548-6.171 5.193-6.171 9.237 0 44.304 18.443 77.181 56.385 100.511 28.417 17.458 61.192 26.652 95.335 26.849 8.891 85.806 81.347 152.26 169.07 152.26 28.157 0 56.056-7.029 80.68-20.327 4.859-2.624 6.671-8.691 4.047-13.551-2.624-4.858-8.69-6.67-13.551-4.047-21.714 11.727-46.326 17.925-71.176 17.925-83.213 0-150-67.139-150-150 0-82.71 67.29-150 150-150 82.937 0 150 67.098 150 150 0 25.773-6.642 51.19-19.207 73.5-2.71 4.813-1.006 10.91 3.806 13.62 4.811 2.71 10.91 1.006 13.62-3.806 14.249-25.3 21.781-54.109 21.781-83.315 0-83.086-59.87-153.483-140.738-167.48zm-199.233 165.199c-30.115-.358-58.964-8.509-83.961-23.865-24.599-15.125-39.086-34.318-44.458-59.352 8.359 4.617 18.042 6.328 27.835 4.739 13.944-2.264 25.563-10.806 31.88-23.44 5.779-11.569 6.077-24.94.818-36.684-5.471-12.217-16.168-21.279-29.348-24.863-22.308-6.074-38.779-19.018-49.135-38.563 31.073 1.921 74.028.003 80.652-30.405 4.515-20.724-11.717-44.263-26.129-60.36-8.24-9.204-17.564-17.825-26.156-24.429 37.736-9.045 78.622 8.312 97.371 43.93l8.991 17.093c8.708 16.548 27.613 25.592 45.965 21.985 15.492-3.039 27.978-14.309 32.583-29.413 4.607-15.108.532-31.436-10.638-42.611l-7.724-7.724c30.177-4.571 60.976 5.104 83.399 26.964 31.309 31.966 48.253 75.057 47.335 119.542-3.102-.168-6.212-.261-9.311-.261-92.973 0-168.741 75.028-169.969 167.717z"/></g></g></svg>